/* XPM */
static char *enemy2_03[] = {
/* columns rows colors chars-per-pixel */
"32 32 5 1 ",
"  c #32313B",
". c #444774",
"X c #8DD894",
"o c #F5DAA7",
"O c white",
/* pixels */
"................................",
"................................",
"................................",
"................................",
"................................",
"................................",
"........XXXXXXXX................",
"......XXX   XXXXX...............",
".....XXX OOOXXXXXX..............",
"....XXX OOOOXXXXXX..............",
"...XXX  OOOOXXXXXXX.............",
"...XX O OOOOXXXXXXX.............",
"..XXXOOOOOOXXXXXXXX.............",
"..XXXXOOOOXXXXXXXXX.............",
"..XXXXXXXXXXXXXXXXX ............",
"..XXXXXXXXXXX XXXXX X...........",
"...XXXXXXXXX oXXXXX X...........",
"....XXXXXX  oXXXXX XXX..........",
"........  oooXXXXX XXXX.........",
".........ooooXXXXX XXXX.........",
".........oooXXXXX XXXXXX........",
"........oooXXXXXX XXXXXX........",
"........oooXXXXXX XXXXXX........",
"........ooXXXXXX XXXXXXX........",
".......oooXXXXXXXXXXXXXX X......",
".......oooXXXXXXXXX XXXX XX.....",
".......oooXXXXXXXXX XXXX XX.....",
".......ooXXXXXXXXX oXXXXXXX.....",
".......ooXXXXXXXX ooXXXXXXX.....",
".......oooXXXXXXX oooXXXXXX.....",
"........ooXXXXX  ..oooXXXX......",
"................................"
};
