/* XPM */
static char *enemy_02[] = {
/* columns rows colors chars-per-pixel */
"32 32 5 1 ",
"  c #32313B",
". c #444774",
"X c #8DD894",
"o c #F5DAA7",
"O c white",
/* pixels */
"................................",
"................................",
"................................",
"................................",
"................................",
"................................",
"................XXXXXXXX........",
"...............XXXXX   XXX......",
"..............XXXXXXOOO XXX.....",
"..............XXXXXXOOOO XXX....",
".............XXXXXXXOOOO  XXX...",
".............XXXXXXXOOOO O XX...",
".............XXXXXXXXOOOOOOXXX..",
".............XXXXXXXXXOOOOXXXX..",
"............ XXXXXXXXXXXXXXXXX..",
"...........X XXXXX XXXXXXXXXXX..",
"...........X XXXXXo XXXXXXXXX...",
"..........XXX XXXXXo  XXXXXX....",
".........XXXX XXXXXooo  ........",
".........XXXX XXXXXoooo.........",
"........XXXXXX XXXXXooo.........",
"........XXXXXX XXXXXXooo........",
"........XXXXXX XXXXXXooo........",
"........XXXXXXX XXXXXXoo........",
"......X XXXXXXXXXXXXXXooo.......",
".....XX XXXX XXXXXXXXXooo.......",
".....XX XXXX XXXXXXXXXooo.......",
".....XXXXXXXo XXXXXXXXXoo.......",
".....XXXXXXXoo XXXXXXXXoo.......",
".....XXXXXXooo XXXXXXXooo.......",
"......XXXXooo..  XXXXXoo........",
"................................"
};
