/* XPM */
static char *walkLeft_01[] = {
/* columns rows colors chars-per-pixel */
"32 32 8 1 ",
"  c #32313B",
". c #444774",
"X c #4C60AA",
"o c #CA60AE",
"O c #5FA1E7",
"+ c #5FC9E7",
"@ c #85DAEB",
"# c white",
/* pixels */
"................................",
"................................",
"................................",
"................................",
"...............#@..........#....",
"..............##@@........##@...",
"..............##@@........##@...",
"..............##@@.......###@@..",
"..............oooo.......###@@..",
"............OO#OOOOO.....###@@..",
"...........O##OOOOOOOO..####@@@.",
"..........OO##OOOOOOOOO.####@@@.",
"........OOOOOOOOOOOOOOOO####@@@.",
".......OOOOOOOOOOOOOOOOO####@@@.",
".......OOOOOOOOOOOOOOOOO####@@@.",
".......OOOOOOOOOOOOOOOOO####@@@.",
"......#OOOOO+#OOOOO+##OO####@@@.",
"......+OOOOO++OOOOO+++OO####@@@.",
"......OOOOOOOOOOOOOOOOOO####@@@.",
"......XXXXX     XXXXXXXX####@@@.",
"......X            OOOOOO###@@..",
"......####     #### OOOOooooooo.",
".....######   ###### OOOOO###...",
"....#####  # #  #####OOOO#####..",
"....#####  # #  #####OOOO#####..",
"....#####XX# #XX#####XXXX#####..",
"....######## ########OOOOO###...",
".....######   ###### OOOOOooo...",
".....OX             OOOOOOooo...",
".....OOX          OOOOOOOOO.....",
".....OOOXX      OOOOOOOOOOO.....",
".........          X............"
};
