/* XPM */
static char *walkLeft_02[] = {
/* columns rows colors chars-per-pixel */
"32 32 8 1 ",
"  c #32313B",
". c #444774",
"X c #4C60AA",
"o c #CA60AE",
"O c #5FA1E7",
"+ c #5FC9E7",
"@ c #85DAEB",
"# c white",
/* pixels */
"................................",
"...............#@...............",
"..............##@@..............",
"..............##@@..............",
"..............##@@.........#....",
"..............oooo........##@...",
"............OO#OOOOO......##@...",
"...........O##OOOOOO.....###@@..",
"..........OO##OOOOOOO....###@@..",
"..........OOOOOOOOOOOO...###@@..",
".........OOOOOOOOOOOOOO.####@@@.",
".........OOOOOOOOOOOOOO.####@@@.",
".........OOOOOOOOOOOOOO.####@@@.",
"........#OOO+#OOOOO#OOO#####@@@.",
"........+OOO++OOOOO+OOO+####@@@.",
"........OOOOOOOOOOOOOOOO####@@@.",
"........OOOOOOOOOOOOOOOO####@@@.",
"........OOOOOOOOOOOOOOOO####@@@.",
"........XXX     XXXXXXXX####@@@.",
"........X         OOOOOO####@@@.",
"........           OOOOO.###@@..",
".......###     #### OOOOooooooo.",
"......#####   ######OOOOO.###...",
".....####  # #  ####OOOOO#####..",
".....####  # #  ####XXXXX#####..",
".....####XX# #XX####OOOOO#####..",
".....####### #######OOOOO.###...",
"......#####   ##### OOOOO.ooo...",
".......           OOOOOOO.ooo...",
".......         OOOOOOOOO.......",
"........X  ........X   .........",
"..................X   .........."
};
