/* XPM */
static char *idle_01[] = {
/* columns rows colors chars-per-pixel */
"32 32 8 1 ",
"  c #32313B",
". c #4C60AA",
"X c #CA60AE",
"o c #5FA1E7",
"O c #5FC9E7",
"+ c #85DAEB",
"@ c white",
"# c None",
/* pixels */
"################################",
"################################",
"###############+@###############",
"##############++@@##############",
"##############++@@##############",
"##############XXXX##############",
"####@#######ooooo@oo############",
"###+@@#####ooooooo@@o###########",
"###+@@####oooooooo@@oo##########",
"##++@@@##oooooooooooooo#########",
"##++@@@#oooooooooooooooo########",
"##++@@@#oooooooooooooooo########",
"#+++@@@@oooooooooooooooo########",
"#+++@@@@ooo@Oooooo@Ooooo@#######",
"#+++@@@@oooOOoooooOOooooO#######",
"#+++@@@@ooooooooooooooooo#######",
"#+++@@@@ooooooooooooooooo#######",
"#+++@@@@........     ....#######",
"#+++@@@@ooooo           .#######",
"#+++@@@@oooo@@@@@@   @@@@@@#####",
"#+++@@@@ooo@@@@@@@@ @@@@@@@@####",
"#+++@@@@ooo@@@@@  @ @  @@@@@####",
"##++@@@oooo@@@@@..@ @..@@@@@####",
"#XXXXXXX...@@@@@@@@ @@@@@@@@####",
"###@@@ooooo @@@@@@@ @@@@@@@#####",
"##@@@@@oooo             .o######",
"##@@@@@ooooo            .o######",
"##@@@@@ooooooo         .oo######",
"###@@@oooooooooo      .ooo######",
"###XXX####.           .#########",
"###XXX###.  #########  .########",
"########.  ###########   #######"
};
