/* XPM */
static char *idle_00[] = {
/* columns rows colors chars-per-pixel */
"32 32 8 1 ",
"  c #32313B",
". c #444774",
"X c #4C60AA",
"o c #CA60AE",
"O c #5FA1E7",
"+ c #5FC9E7",
"@ c #85DAEB",
"# c white",
/* pixels */
"................................",
"................................",
"................................",
"................................",
"...............@#...............",
"..............@@##..............",
"....#.........@@##..............",
"...@##........oooo..............",
"...@##......OOOOO#OO............",
"..@@###....OOOOOOO##O...........",
"..@@###...OOOOOOOO##OO..........",
"..@@###..OOOOOOOOOOOOOO.........",
".@@@####OOOOOOOOOOOOOOOO........",
".@@@####OOOOOOOOOOOOOOOO........",
".@@@####OOOOOOOOOOOOOOOO........",
".@@@####OOO#+OOOOO#+OOOO#.......",
".@@@####OOO++OOOOO++OOOO+.......",
".@@@####OOOOOOOOOOOOOOOOO.......",
".@@@####XXXXXXXX     XXXX.......",
".@@@####OOOOO#####   #####......",
".@@@####OOOO####### #######.....",
".@@@####OOO ####  # #  ####.....",
"..@@###OOOO ####  # #  ####.....",
".oooooooOOO ####  # #  ####.....",
"...###XXXXX ####XX# #XX####.....",
"..#####OOOO ####### #######.....",
"..#####OOOO  #####   #####......",
"..#####OOOOO            XO......",
"...###OOOOOOOO         XOO......",
"...oooOOOOOOOOOO      XOOO......",
"...ooo...X   .......   X........",
"........X   .........   X......."
};
