/* XPM */
static char *walkLeft_00[] = {
/* columns rows colors chars-per-pixel */
"32 32 8 1 ",
"  c #32313B",
". c #444774",
"X c #4C60AA",
"o c #CA60AE",
"O c #5FA1E7",
"+ c #5FC9E7",
"@ c #85DAEB",
"# c white",
/* pixels */
"................................",
"...............#@...............",
"..............##@@..............",
"..............##@@..............",
"..............##@@..............",
"..............oooo..............",
"............OO#OOOOO.......#....",
"...........O##OOOOOOO.....##@...",
"..........OO##OOOOOOOO....##@...",
".........OOOOOOOOOOOOOO..###@@..",
"........OOOOOOOOOOOOOOOO.###@@..",
"........OOOOOOOOOOOOOOOO.###@@..",
"........OOOOOOOOOOOOOOOO####@@@.",
".......#OOOO+#OOOOO+#OOO####@@@.",
".......+OOOO++OOOOO++OOO####@@@.",
".......OOOOOOOOOOOOOOOOO####@@@.",
".......OOOOOOOOOOOOOOOOO####@@@.",
".......XXXX     XXXXXXXX####@@@.",
".......X           OOOOO####@@@.",
"......####     #### OOOO####@@@.",
".....######   ###### OOO####@@@.",
"....#####  # #  #####OOO####@@@.",
"....#####  # #  #####OOOO###@@..",
"....#####XX# #XX#####XXXooooooo.",
"....######## ########OOOOO###...",
".....######   ###### OOOO#####..",
"......OX            OOOOO#####..",
"..... XOX         OOOOOOO#####..",
".....  OOX      OOOOOOOOOO###...",
".....   ............X   ..ooo...",
"......  .............X  ..ooo...",
"................................"
};
