/* XPM */
static char *walkUP_01[] = {
/* columns rows colors chars-per-pixel */
"32 32 9 1 ",
"  c #32313B",
". c #4C60AA",
"X c #CA60AE",
"o c #5FA1E7",
"O c #2CE8F5",
"+ c #5FC9E7",
"@ c #85DAEB",
"# c white",
"$ c None",
/* pixels */
"$$$$$$$$$$$$$$$$$$$$$$$$$$$$$$$$",
"$$$$$$$$$$$$$$$$$$$$$$$$$$$$$$$$",
"$$$$$$$$$$$$$$$$$$$$$$$$$$$$$$$$",
"$$$$$$$$$$$$$$$#@$$$$$$$$$$$$$$$",
"$$$$$$$$$$$$$$##@@$$$$$$$$$$$$$$",
"$$$$$$$$$$$$$$##@@$$$$$$$$$$$$$$",
"$$$$$$$$$$$$$$##@@$$$$$$$$$$$$$$",
"$$$$$$$$$$$$$$XXXX$$$$$$$$$$$$$$",
"$$$$$$$$$$$$ooooo#oo$$$$$$$#$$$$",
"$$$$$$$$$$$ooooooo#oo$$$$$##@$$$",
"$$$$$$$$$$oooooooo#ooo$$$$##@$$$",
"$$$$$$$$$oooooooooooooo$$###@@$$",
"$$$$$$$$oooooooooooooooo$###@@$$",
"$$$$$$$$oooooooooooooooo$###@@$$",
"$$$$$$$$oooooooooooooooo####@@@$",
"$$$$$$$#Oooo##ooooo+#ooo####@@@$",
"$$$$$$$OOoooO+ooooo++ooo####@@@$",
"$$$$$$$ooooooooooooooooo####@@@$",
"$$$$$$$ooooooooooooooooo####@@@$",
"$$$$$$$.................####@@@$",
"$$$$$$$ooooooooooooooooo####@@@$",
"$$$$$$$ooooooooooooooooo####@@@$",
"$$$$$$$ooooooooooooooooo####@@@$",
"$$$$$$oooooooooooooooooo####@@@$",
"$$$$$$ooooooooooooooooooo###@@$$",
"$$$$$$..................XXXXXXX$",
"$$$$$$oooooooooooooooooooo###$$$",
"$$$$$$ooooooooooooooooooo#####$$",
"$$$$$$ooooooooooooooooooo#####$$",
"$$$$$$ooooooooooooooooooo#####$$",
"$$$$$$oooooooooooooooooooo###$$$",
"$$$$$$$$$$             $$$XXX$$$"
};
