/* XPM */
static char *walkRight_01[] = {
/* columns rows colors chars-per-pixel */
"32 32 8 1 ",
"  c #32313B",
". c #444774",
"X c #4C60AA",
"o c #CA60AE",
"O c #5FA1E7",
"+ c #5FC9E7",
"@ c #85DAEB",
"# c white",
/* pixels */
"................................",
"................................",
"................................",
"................................",
"....#..........@#...............",
"...@##........@@##..............",
"...@##........@@##..............",
"..@@###.......@@##..............",
"..@@###.......oooo..............",
"..@@###.....OOOOO#OO............",
".@@@####..OOOOOOOO##O...........",
".@@@####.OOOOOOOOO##OO..........",
".@@@####OOOOOOOOOOOOOOOO........",
".@@@####OOOOOOOOOOOOOOOOO.......",
".@@@####OOOOOOOOOOOOOOOOO.......",
".@@@####OOOOOOOOOOOOOOOOO.......",
".@@@####OO##+OOOOO#+OOOOO#......",
".@@@####OO+++OOOOO++OOOOO+......",
".@@@####OOOOOOOOOOOOOOOOOO......",
".@@@####XXXXXXXX     XXXXX......",
"..@@###OOOOOO            X......",
".oooooooOOOO ####     ####......",
"...###OOOOO ######   ######.....",
"..#####OOOO#####  # #  #####....",
"..#####OOOO#####  # #  #####....",
"..#####XXXX#####XX# #XX#####....",
"...###OOOOO######## ########....",
"...oooOOOOO ######   ######.....",
"...oooOOOOOO             XO.....",
".....OOOOOOOOO          XOO.....",
".....OOOOOOOOOOO      XXOOO.....",
"............X          ........."
};
