/* XPM */
static char *walkDown_02[] = {
/* columns rows colors chars-per-pixel */
"32 32 9 1 ",
"  c #32313B",
". c #4C60AA",
"X c #CA60AE",
"o c #5FA1E7",
"O c #2CE8F5",
"+ c #5FC9E7",
"@ c #85DAEB",
"# c white",
"$ c None",
/* pixels */
"$$$$$$$$$$$$$$$$$$$$$$$$$$$$$$$$",
"$$$$$$$$$$$$$$$$$$$$$$$$$$$$$$$$",
"$$$$$$$$$$$$$$$@#$$$$$$$$$$$$$$$",
"$$$$$$$$$$$$$$@@##$$$$$$$$$$$$$$",
"$$$$#$$$$$$$$$@@##$$$$$$$$$$$$$$",
"$$$@##$$$$$$$$@@##$$$$$$$$$$$$$$",
"$$$@##$$$$$$$$XXXX$$$$$$$$$$$$$$",
"$$@@###$$$$$ooooo#oo$$$$$$$$$$$$",
"$$@@###$$$$ooooooo##o$$$$$$$$$$$",
"$$@@###$$$oooooooo##oo$$$$$$$$$$",
"$@@@####$oooooooooooooo$$$$$$$$$",
"$@@@####oooooooooooooooo$$$$$$$$",
"$@@@####ooooooooooooooooo$$$$$$$",
"$@@@####ooooooooooooooooo$$$$$$$",
"$@@@####ooo#+ooooo#+oooo##$$$$$$",
"$@@@####ooo++ooooo++oooo+O$$$$$$",
"$@@@####oooooooooooooooooo$$$$$$",
"$@@@####ooooooooooooooooooo$$$$$",
"$@@@####......     .......o$$$$$",
"$@@@####ooo           .oooo$$$$$",
"$$@@####oo XXXX     XXXXooo$$$$$",
"$XXXXXXXo ######   ######oo$$$$$",
"$$$###$$o#####  # #  #####oo$$$$",
"$$#####oo#####  # #  #####oo$$$$",
"$$#####..#####..# #..#####..$$$$",
"$$#####oo######## ########oo$$$$",
"$$$###ooo ######   ######ooo$$$$",
"$$$XXXoooo            .ooooo$$$$",
"$$$XXXoooooo         .oooooo$$$$",
"$$$$$$oooooooo     ..ooooooo$$$$",
"$$$$$$$$$$.   $$$$$$  .$$$$$$$$$",
"$$$$$$$$$.   $$$$$$$$$$$$$$$$$$$"
};
