/* XPM */
static char *exit_close_01[] = {
/* columns rows colors chars-per-pixel */
"32 32 5 1 ",
"  c #444774",
". c #32313B",
"X c #4C60AA",
"o c #3B3E65",
"O c white",
/* pixels */
"XXXXXXXXXXXXXXXXXXXXXXXXXXXXXXXX",
"XXXXXXXXXXXXXXXXXXXXXXXXXXXXXXXX",
"XXXXXXXXXXXXXXXXXXXXXXXXXXXXXXXX",
"XXXXXX                    XXXXXX",
"XXXX                        XXXX",
"XXX    ..................    XXX",
"XX    .oooooooooooooooooo.    XX",
"X    .oooooooooooooooooooo.    X",
"X   .oooooooooooooooooooooo.   X",
"X   .oooooooo   ooooooooooo.   X",
"X   .ooooooo ... oooooooooo.   X",
"X   .ooooooo .... ooooooooo.   X",
"X   .oooo    .....    ooooo.   X",
"X   .ooo ............. oooo.   X",
"X   .oo ............... ooo.   X",
"X   .oo ............... ooo.   X",
"X   .oo ............... ooo.   X",
"X   .ooo ............. oooo.   X",
"X   .oooo ............ oooo.   X",
"X   .ooooo ........... oooo.   X",
"X   .ooooo ........... oooo.   X",
"X   .ooooo ........... oooo.   X",
"X   .ooooo ........... oooo.   X",
"X   .ooooo .....  ... ooooo.   X",
"X   .oooooo ... oo   oooooo.   X",
"X   .ooooooo   oooooooooooo.   X",
"X   .oooooooooooooooooooooo.   X",
"X   .oooooooooooooooooooooo.   X",
"X   .oooooooooooooooooooooo.   X",
"X   .oooooooooooooooooooooo.   X",
"X   .oooooooooooooooooooooo.   X",
"X   .oooooooooooooooooooooo.   X"
};
