/* XPM */
static char *starAnim4[] = {
/* columns rows colors chars-per-pixel */
"32 32 4 1 ",
"  c #32313B",
". c #F3A787",
"X c #F5DAA7",
"o c white",
/* pixels */
"                                ",
"                                ",
"                                ",
"                                ",
"                                ",
"                                ",
"                                ",
"                                ",
"              XX                ",
"              XXX               ",
"             XXXXX              ",
"         XXXXXXXoXXXXX          ",
"         XXXXXXXXoXXXX          ",
"         XXXXXXXXXXXXX          ",
"          XX...XXXXXX           ",
"           X...XXXXXX           ",
"            X..XXXXXX           ",
"            X..XXXXXX           ",
"            XXXXXXXXX           ",
"            XXXX  .XX           ",
"            XXX                 ",
"                                ",
"                                ",
"                                ",
"                                ",
"                                ",
"                                ",
"                                ",
"                                ",
"                                ",
"                                ",
"                                "
};
