/* XPM */
static char *idleAnim_04[] = {
/* columns rows colors chars-per-pixel */
"32 32 8 1 ",
"  c #32313B",
". c #4C60AA",
"X c #CA60AE",
"o c #5FA1E7",
"O c #5FC9E7",
"+ c #85DAEB",
"@ c white",
"# c None",
/* pixels */
"################################",
"################################",
"###############+@###############",
"##############++@@##############",
"##############++@@##############",
"####@#########++@@##############",
"###+@@########XXXX##############",
"###+@@######ooooo@oo############",
"##++@@@####ooooooo@@o###########",
"##++@@@###oooooooo@@oo##########",
"##++@@@##oooooooooooooo#########",
"#+++@@@@oooooooooooooooo########",
"#+++@@@@oooooooooooooooo########",
"#+++@@@@oooooooooooooooo########",
"#+++@@@@ooo@Oooooo@Ooooo@#######",
"#+++@@@@oooOOoooooOOooooO#######",
"#+++@@@@ooooooooooooooooo#######",
"#+++@@@@ooooooooooooooooo#######",
"#+++@@@@........     ....#######",
"#+++@@@@ooooo           .#######",
"#+++@@@@oooo @@@@     @@@@######",
"##++@@@oooo @@@@@@   @@@@@@#####",
"#XXXXXXXooo@@@@@  @ @  @@@@@####",
"###@@@ooooo@@@@@  @ @  @@@@@####",
"##@@@@@....@@@@@..@ @..@@@@@####",
"##@@@@@oooo@@@@@@@@ @@@@@@@@####",
"##@@@@@oooo @@@@@@   @@@@@@#####",
"###@@@oooooo            .o######",
"###XXXoooooooo         .oo######",
"###XXXoooooooooo      .ooo######",
"#########.   #######   .########",
"########.   #########   .#######"
};
