/* XPM */
static char *star_02[] = {
/* columns rows colors chars-per-pixel */
"32 32 5 1 ",
"  c #32313B",
". c #444774",
"X c #F3A787",
"o c #F5DAA7",
"O c white",
/* pixels */
"................................",
"................................",
"................................",
"................................",
"................................",
"................................",
"................................",
".............   ................",
"............. oo ...............",
"............. ooo ..............",
".........    ooooo    ..........",
"........ oooooooOooooo .........",
"........ ooooooooOoooo .........",
"........ ooooooooooooo .........",
"......... ooXXXoooooo ..........",
".......... oXXXoooooo ..........",
"........... oXXoooooo ..........",
"........... oXXoooooo ..........",
"........... ooooooooo ..........",
"........... oooo  Xoo ..........",
"........... ooo ..   ...........",
"............   .................",
"................................",
"................................",
"................................",
"................................",
"................................",
"................................",
"................................",
"................................",
"................................",
"................................"
};
