/* XPM */
static char *walkAnimRight_02[] = {
/* columns rows colors chars-per-pixel */
"32 32 8 1 ",
"  c #32313B",
". c #4C60AA",
"X c #CA60AE",
"o c #5FA1E7",
"O c #5FC9E7",
"+ c #85DAEB",
"@ c white",
"# c None",
/* pixels */
"################################",
"###############+@###############",
"##############++@@##############",
"##############++@@##############",
"####@#########++@@##############",
"###+@@########XXXX##############",
"###+@@######ooooo@oo############",
"##++@@@#####oooooo@@o###########",
"##++@@@####ooooooo@@oo##########",
"##++@@@###oooooooooooo##########",
"#+++@@@@#oooooooooooooo#########",
"#+++@@@@#oooooooooooooo#########",
"#+++@@@@#oooooooooooooo#########",
"#+++@@@@@ooo@ooooo@Oooo@########",
"#+++@@@@OoooOoooooOOoooO########",
"#+++@@@@oooooooooooooooo########",
"#+++@@@@oooooooooooooooo########",
"#+++@@@@oooooooooooooooo########",
"#+++@@@@........     ...########",
"#+++@@@@oooooo         .########",
"##++@@@#ooooo           ########",
"#XXXXXXXoooo @@@@     @@@#######",
"###@@@#ooooo@@@@@@   @@@@@######",
"##@@@@@ooooo@@@@  @ @  @@@@#####",
"##@@@@@.....@@@@  @ @  @@@@#####",
"##@@@@@ooooo@@@@..@ @..@@@@#####",
"###@@@#ooooo@@@@@@@ @@@@@@@#####",
"###XXX#ooooo @@@@@   @@@@@######",
"###XXX#ooooooo           #######",
"#######ooooooooo         #######",
"#########   .########  .########",
"##########   .##################"
};
