/* XPM */
static char *block[] = {
/* columns rows colors chars-per-pixel */
"32 32 4 1 ",
"  c #4C60AA",
". c #32313B",
"X c white",
"o c #444774",
/* pixels */
"oo............................oo",
"o.       .            .       .o",
".        .            .        .",
".        .            .        .",
"................................",
".    .                    .    .",
".    .                    .    .",
".    .                    .    .",
"................................",
".        .            .        .",
".        .            .        .",
".        .            .        .",
".        .            .        .",
"................................",
".    .                    .    .",
".    .                    .    .",
".    .                    .    .",
"................................",
".        .            .        .",
".        .            .        .",
".        .            .        .",
".        .            .        .",
"................................",
".    .                    .    .",
".    .                    .    .",
".    .                    .    .",
"................................",
".        .            .        .",
".        .            .        .",
".        .            .        .",
"o.       .            .       .o",
"oo............................oo"
};
