/* XPM */
static char *midBlocks_03[] = {
/* columns rows colors chars-per-pixel */
"32 32 3 1 ",
"  c #32313B",
". c #444774",
"X c #4C60AA",
/* pixels */
". XXXX                          ",
". XXXX                          ",
". XXXX                          ",
". XXXX                          ",
". XXXX                          ",
". XXXX                          ",
". XXXX                          ",
". XXXX                          ",
". XXXX                          ",
". XXXX                          ",
". XXXX                          ",
". XXXX                          ",
". XXXX                          ",
". XXXX                          ",
". XXXX                          ",
". XXXX                          ",
". XXXX                          ",
". XXXX                          ",
". XXXX                          ",
". XXXX                          ",
". XXXX                          ",
". XXXX                          ",
". XXXX                          ",
". XXXX                          ",
". XXXX                          ",
". XXXX                          ",
". XXXX                          ",
". XXXX                          ",
". XXXX                          ",
". XXXX                          ",
". XXXX                          ",
". XXXX                          "
};
