/* XPM */
static char *tile_block1[] = {
/* columns rows colors chars-per-pixel */
"32 32 3 1 ",
"  c #32313B",
". c #444774",
"X c #4C60AA",
/* pixels */
".                              .",
"  XXXXXX XXXXXX XXXXXXX XXXXXX  ",
" XXXXXXX XXXXXX XXXXXXX XXXXXXX ",
" XXXXXXX XXXXXX XXXXXXX XXXXXXX ",
" XXXXXXX XXXXXX XXXXXXX XXXXXXX ",
" XXXX                      XXXX ",
" XXXX                      XXXX ",
" XXXX                      XXXX ",
"                                ",
" XXXX                      XXXX ",
" XXXX                      XXXX ",
" XXXX                      XXXX ",
" XXXX                      XXXX ",
" XXXX                      XXXX ",
" XXXX                      XXXX ",
"                                ",
" XXXX                      XXXX ",
" XXXX                      XXXX ",
" XXXX                      XXXX ",
" XXXX                      XXXX ",
" XXXX                      XXXX ",
" XXXX                      XXXX ",
"                                ",
" XXXX                      XXXX ",
" XXXX                      XXXX ",
" XXXX                      XXXX ",
" XXXX                      XXXX ",
" XXXXXXX XXXXXX XXXXXXX XXXXXXX ",
" XXXXXXX XXXXXX XXXXXXX XXXXXXX ",
" .XXXXXX XXXXXX XXXXXXX XXXXXX. ",
" .............................. ",
"  ............................  "
};
