/* XPM */
static char *tile_block2[] = {
/* columns rows colors chars-per-pixel */
"32 32 3 1 ",
"  c #32313B",
". c #444774",
"X c #4C60AA",
/* pixels */
"                                ",
"                                ",
" XXXXXXXXXXXXXXXXXXXXXXXXXXXXXX ",
" XXXXXXXXXXXXXXXXXXXXXXXXXXXXXX ",
" XXXXXXXXXXXXXXXXXXXXXXXXXXXXXX ",
"                                ",
" XXXX XXXXXXXXXXXXXXXXXXXX XXXX ",
" XXXX XXXXXXXXXXXXXXXXXXXX XXXX ",
" XXXX XXXXXXXXXXXXXXXXXXXX XXXX ",
"                                ",
" XXXXXXXX XXXXXXXXXXXX XXXXXXXX ",
" XXXXXXXX XXXXXXXXXXXX XXXXXXXX ",
" XXXXXXXX XXXXXXXXXXXX XXXXXXXX ",
" XXXXXXXX XXXXXXXXXXXX XXXXXXXX ",
"                                ",
" XXXX XXXXXXXXXXXXXXXXXXXX XXXX ",
" XXXX XXXXXXXXXXXXXXXXXXXX XXXX ",
" XXXX XXXXXXXXXXXXXXXXXXXX XXXX ",
"                                ",
" XXXXXXXX XXXXXXXXXXXX XXXXXXXX ",
" XXXXXXXX XXXXXXXXXXXX XXXXXXXX ",
" XXXXXXXX XXXXXXXXXXXX XXXXXXXX ",
" XXXXXXXX XXXXXXXXXXXX XXXXXXXX ",
"                                ",
" XXXX XXXXXXXXXXXXXXXXXXXX XXXX ",
" XXXX XXXXXXXXXXXXXXXXXXXX XXXX ",
" XXXX XXXXXXXXXXXXXXXXXXXX XXXX ",
"                                ",
" XXXXXXXX XXXXXXXXXXXX XXXXXXXX ",
" XXXXXXXX XXXXXXXXXXXX XXXXXXXX ",
"                                ",
".                              ."
};
