/* XPM */
static char *topBlocks_02[] = {
/* columns rows colors chars-per-pixel */
"32 32 3 1 ",
"  c #32313B",
". c #4C60AA",
"X c white",
/* pixels */
"                                ",
"                                ",
"                                ",
"                                ",
"                                ",
"                                ",
"                                ",
"                                ",
"                                ",
"                                ",
"                                ",
"                                ",
"                                ",
"                                ",
"                                ",
"                                ",
"                                ",
"                                ",
"                                ",
"                                ",
"                                ",
"                                ",
"                                ",
"                                ",
"                                ",
"                                ",
"                                ",
"................................",
"................................",
"................................",
"................................",
"                                "
};
