/* XPM */
static char *enemy_00[] = {
/* columns rows colors chars-per-pixel */
"32 32 5 1 ",
"  c #32313B",
". c #444774",
"X c #8DD894",
"o c #F5DAA7",
"O c white",
/* pixels */
"................................",
"................................",
"................................",
"................................",
"................................",
"................................",
"................................",
"................................",
"................................",
"................................",
"................XXXXXXXX........",
"...............XXXXX   XXX......",
"..............XXXXXXOOO XXX.....",
"..............XXXXXXOOOO XXX....",
".............XXXXXXXOOOO  XXX...",
".............XXXXXXXOOOO O XX...",
".............XXXXXXXXOOOOOOXXX..",
".............XXXXXXXXXOOOOXXXX..",
".............XXXXXXXXXXXXXXXXX..",
".............XXXXX XXXXXXXXXXX..",
".........XXXX XXXXX XXXXXXXXX...",
"........XXXXX XXXXXX  XXXXXX....",
".......XXXXXXX XXXXXXo  ........",
".......XXXXXXXX XXXXXXoo........",
".......XXXX XXXX XXXXXooo.......",
"....X .XXXX XXXXXXXXXXXoo.......",
"....XX XXXXX XXXXXXXXXXoo.......",
"....XXX XXXX XXXXXXXXXXoo.......",
"....XXXX XXXo XXXXXXXXooo.......",
".....XXXXXXooo XXXXXXooo........",
"......XXXoooo.. XXXoooo.........",
"................................"
};
