/* XPM */
static char *enemy_01[] = {
/* columns rows colors chars-per-pixel */
"32 32 5 1 ",
"  c #32313B",
". c #444774",
"X c #8DD894",
"o c #F5DAA7",
"O c white",
/* pixels */
"................................",
"................................",
"................................",
"................................",
"................................",
"................................",
"................................",
"..................XXXXXXXX......",
".................XXXXX   XXX....",
"................XXXXXXOOO XXX...",
"................XXXXXXOOOO XXX..",
"...............XXXXXXXOOOO  XXX.",
"...............XXXXXXXOOOO O XX.",
"...............XXXXXXXXOOOOOOXXX",
"...............XXXXXXXXXOOOOXXXX",
".............. XXXXXXXXXXXXXXXXX",
".............. XXXXX XXXXXXXXXXX",
".............. XXXXXX XXXXXXXXX.",
"............... XXXXXo  XXXXXX..",
"............... XXXXXXoo  ......",
"............... XXXXXXooo.......",
"............XXX XXXXXXXooo......",
"..........XXXXXX XXXXXXooo......",
"........XXXXXXXX XXXXXXXoo......",
"....... XXXXXXXXXXXXXXXXooo.....",
"XX.... XXXXXXXXXXXXXXXXXooo.....",
"XXXX. XXXXXXXXXXXXXXXXXXooo.....",
".XXXX XXXXXXXXXXXXXXXXXXooo.....",
"..XXXXXXXXXoo..XXXXXXXXXooo.....",
"...XXXXXXXooo...XXXXXXXXooo.....",
"....XXXXoooo......oXXXXooo......",
"................................"
};
