/* XPM */
static char *enemy2_01[] = {
/* columns rows colors chars-per-pixel */
"32 32 5 1 ",
"  c #32313B",
". c #444774",
"X c #8DD894",
"o c #F5DAA7",
"O c white",
/* pixels */
"................................",
"................................",
"................................",
"................................",
"................................",
"................................",
"................................",
"......XXXXXXXX..................",
"....XXX   XXXXX.................",
"...XXX OOOXXXXXX................",
"..XXX OOOOXXXXXX................",
".XXX  OOOOXXXXXXX...............",
".XX O OOOOXXXXXXX...............",
"XXXOOOOOOXXXXXXXX...............",
"XXXXOOOOXXXXXXXXX...............",
"XXXXXXXXXXXXXXXXX ..............",
"XXXXXXXXXXX XXXXX ..............",
".XXXXXXXXX XXXXXX ..............",
"..XXXXXX  oXXXXX ...............",
"......  ooXXXXXX ...............",
".......oooXXXXXX ...............",
"......oooXXXXXXX XXX............",
"......oooXXXXXX XXXXXX..........",
"......ooXXXXXXX XXXXXXXX........",
".....oooXXXXXXXXXXXXXXXX .......",
".....oooXXXXXXXXXXXXXXXXX ....XX",
".....oooXXXXXXXXXXXXXXXXXX .XXXX",
".....oooXXXXXXXXXXXXXXXXXX XXXX.",
".....oooXXXXXXXXX..ooXXXXXXXXX..",
".....oooXXXXXXXX...oooXXXXXXX...",
"......oooXXXXo......ooooXXXX....",
"................................"
};
