/* XPM */
static char *enemy2_00[] = {
/* columns rows colors chars-per-pixel */
"32 32 5 1 ",
"  c #32313B",
". c #444774",
"X c #8DD894",
"o c #F5DAA7",
"O c white",
/* pixels */
"................................",
"................................",
"................................",
"................................",
"................................",
"................................",
"................................",
"................................",
"................................",
"................................",
"........XXXXXXXX................",
"......XXX   XXXXX...............",
".....XXX OOOXXXXXX..............",
"....XXX OOOOXXXXXX..............",
"...XXX  OOOOXXXXXXX.............",
"...XX O OOOOXXXXXXX.............",
"..XXXOOOOOOXXXXXXXX.............",
"..XXXXOOOOXXXXXXXXX.............",
"..XXXXXXXXXXXXXXXXX.............",
"..XXXXXXXXXXX XXXXX.............",
"...XXXXXXXXX XXXXX XXXX.........",
"....XXXXXX  XXXXXX XXXXX........",
"........  oXXXXXX XXXXXXX.......",
"........ooXXXXXX XXXXXXXX.......",
".......oooXXXXX XXXX XXXX.......",
".......ooXXXXXXXXXXX XXXX. X....",
".......ooXXXXXXXXXX XXXXX XX....",
".......ooXXXXXXXXXX XXXX XXX....",
".......oooXXXXXXXX oXXX XXXX....",
"........oooXXXXXX oooXXXXXX.....",
".........ooooXXX ..ooooXXX......",
"................................"
};
