/* XPM */
static char *exit_close_01[] = {
/* columns rows colors chars-per-pixel */
"32 32 4 1 ",
"  c #32313B",
". c #3B3E65",
"X c #444774",
"o c #4C60AA",
/* pixels */
"XX  oooooooooooooooooooooooo  XX",
"X oooooooooooooooooooooooooooo X",
"X oooooooooooooooooooooooooooo X",
" oooooXXXXXXXXXXXXXXXXXXXXooooo ",
" oooXXXXXXXXXXXXXXXXXXXXXXXXooo ",
"oooXXXX                  XXXXooo",
"ooXXXX .................. XXXXoo",
"oXXXX .................... XXXXo",
"oXXX ...................... XXXo",
"oXXX ........XXX........... XXXo",
"oXXX .......X   X.......... XXXo",
"oXXX .......X    X......... XXXo",
"oXXX ....XXXX     XXXX..... XXXo",
"oXXX ...X             X.... XXXo",
"oXXX ..X               X... XXXo",
"oXXX ..X               X... XXXo",
"oXXX ..X               X... XXXo",
"oXXX ...X             X.... XXXo",
"oXXX ....X            X.... XXXo",
"oXXX .....X           X.... XXXo",
"oXXX .....X           X.... XXXo",
"oXXX .....X           X.... XXXo",
"oXXX .....X           X.... XXXo",
"oXXX .....X     XX   X..... XXXo",
"oXXX ......X   X..XXX...... XXXo",
"oXXX .......XXX............ XXXo",
"oXXX ...................... XXXo",
"oXXX ...................... XXXo",
"oXXX ...................... XXXo",
"oXXX ...................... XXXo",
"oXXX ...................... XXXo",
"oXXX ...................... XXXo"
};
