/* XPM */
static char *exit_open_01[] = {
/* columns rows colors chars-per-pixel */
"32 32 5 1 ",
"  c #444774",
". c #32313B",
"X c #4C60AA",
"o c #3B3E65",
"O c white",
/* pixels */
"XXXXXXXXXXXXXXXXXXXXXXXXXXXXXXXX",
"XXXXXXXXXXXXXXXXXXXXXXXXXXXXXXXX",
"XXXXXXXXXXXXXXXXXXXXXXXXXXXXXXXX",
"XXXXXX                    XXXXXX",
"XXXX                        XXXX",
"XXX    ..................    XXX",
"XX    ....................    XX",
"X    ......................    X",
"X   ........................   X",
"X   ........................   X",
"X   ........................   X",
"X   ........................   X",
"X   ........................   X",
"X   ........................   X",
"X   ........................   X",
"X   ........................   X",
"X   ........................   X",
"X   ........................   X",
"X   ........................   X",
"X   ........................   X",
"X   ........................   X",
"X   ........................   X",
"X   .......oooooooooo.......   X",
"X   .....oo..........oo.....   X",
"X   ....o..oooooooooo..o....   X",
"X   ....o..oooooooooo..o....   X",
"X   .....oooooooooooooo.....   X",
"X   ..oooooooooooooooooooo..   X",
"X   .oooooo          oooooo.   X",
"X   .ooooo            ooooo.   X",
"X   .ooooo            ooooo.   X",
"X   .oooooooooooooooooooooo.   X"
};
